<svg xmlns="http://www.w3.org/2000/svg" aria-label="Code-retrieval headline: up to 34 percent lower cost on Codex, up to 56 percent fewer tool calls, 1.5 to 2 times more useful context per response, and plus 3 percentage points accuracy on weak models." font-family="ui-monospace,SFMono-Regular,Menlo,Consolas,monospace" shape-rendering="crispEdges" viewBox="0 0 920 150"><defs><linearGradient id="bg" x1="0" x2="0" y1="0" y2="1"><stop offset="0" stop-color="#131a3a"/><stop offset="1" stop-color="#070b1c"/></linearGradient><linearGradient id="candy" x1="0" x2="1" y1="0" y2="0"><stop offset="0%" stop-color="#a78bfa" stop-opacity="0"/><stop offset="15%" stop-color="#a78bfa"/><stop offset="40%" stop-color="#3fd08f"/><stop offset="62%" stop-color="#ffc247"/><stop offset="85%" stop-color="#ff5ba3"/><stop offset="100%" stop-color="#ff5ba3" stop-opacity="0"/></linearGradient><clipPath id="round"><rect width="920" height="150" rx="16"/></clipPath></defs><g clip-path="url(#round)"><rect width="920" height="150" fill="url(#bg)"/><rect width="920" height="3" fill="url(#candy)" opacity=".85"/><rect width="920" height="3" y="147" fill="url(#candy)" opacity=".5"/><g fill="#a78bfa" opacity=".16"><rect width="12" height="4" x="54" y="28"/><rect width="4" height="12" x="58" y="24"/><rect width="4" height="4" x="52" y="28"/><rect width="4" height="4" x="64" y="28"/><rect width="4" height="4" x="58" y="22"/><rect width="4" height="4" x="58" y="34"/></g><g fill="#3fd08f" opacity=".16"><rect width="12" height="4" x="184" y="122"/><rect width="4" height="12" x="188" y="118"/><rect width="4" height="4" x="182" y="122"/><rect width="4" height="4" x="194" y="122"/><rect width="4" height="4" x="188" y="116"/><rect width="4" height="4" x="188" y="128"/></g><g fill="#ffc247" opacity=".14"><rect width="12" height="4" x="414" y="26"/><rect width="4" height="12" x="418" y="22"/><rect width="4" height="4" x="412" y="26"/><rect width="4" height="4" x="424" y="26"/><rect width="4" height="4" x="418" y="20"/><rect width="4" height="4" x="418" y="32"/></g><g fill="#ff5ba3" opacity=".16"><rect width="12" height="4" x="694" y="124"/><rect width="4" height="12" x="698" y="120"/><rect width="4" height="4" x="692" y="124"/><rect width="4" height="4" x="704" y="124"/><rect width="4" height="4" x="698" y="118"/><rect width="4" height="4" x="698" y="130"/></g><g fill="#a78bfa" opacity=".14"><rect width="12" height="4" x="874" y="28"/><rect width="4" height="12" x="878" y="24"/><rect width="4" height="4" x="872" y="28"/><rect width="4" height="4" x="884" y="28"/><rect width="4" height="4" x="878" y="22"/><rect width="4" height="4" x="878" y="34"/></g><g fill="#243056"><rect width="2" height="6" x="229" y="44"/><rect width="2" height="6" x="229" y="56"/><rect width="2" height="6" x="229" y="68"/><rect width="2" height="6" x="229" y="80"/><rect width="2" height="6" x="229" y="92"/><rect width="2" height="6" x="459" y="44"/><rect width="2" height="6" x="459" y="56"/><rect width="2" height="6" x="459" y="68"/><rect width="2" height="6" x="459" y="80"/><rect width="2" height="6" x="459" y="92"/><rect width="2" height="6" x="689" y="44"/><rect width="2" height="6" x="689" y="56"/><rect width="2" height="6" x="689" y="68"/><rect width="2" height="6" x="689" y="80"/><rect width="2" height="6" x="689" y="92"/></g><g fill="#3fd08f"><rect width="30" height="6" x="46" y="68"/><rect width="30" height="6" x="82" y="50"/><rect width="6" height="6" x="100" y="56"/><rect width="6" height="6" x="94" y="62"/><rect width="6" height="6" x="100" y="68"/><rect width="6" height="6" x="106" y="74"/><rect width="6" height="6" x="82" y="80"/><rect width="6" height="6" x="106" y="80"/><rect width="18" height="6" x="88" y="86"/><rect width="6" height="6" x="136" y="50"/><rect width="12" height="6" x="130" y="56"/><rect width="6" height="6" x="124" y="62"/><rect width="6" height="6" x="136" y="62"/><rect width="6" height="6" x="118" y="68"/><rect width="6" height="6" x="136" y="68"/><rect width="30" height="6" x="118" y="74"/><rect width="6" height="6" x="136" y="80"/><rect width="6" height="6" x="136" y="86"/><rect width="12" height="6" x="154" y="50"/><rect width="6" height="6" x="178" y="50"/><rect width="12" height="6" x="154" y="56"/><rect width="6" height="6" x="172" y="56"/><rect width="6" height="6" x="166" y="62"/><rect width="6" height="6" x="166" y="68"/><rect width="6" height="6" x="160" y="74"/><rect width="6" height="6" x="154" y="80"/><rect width="12" height="6" x="172" y="80"/><rect width="12" height="6" x="172" y="86"/></g><g fill="#a78bfa"><rect width="30" height="6" x="276" y="68"/><rect width="30" height="6" x="312" y="50"/><rect width="6" height="6" x="312" y="56"/><rect width="24" height="6" x="312" y="62"/><rect width="6" height="6" x="336" y="68"/><rect width="6" height="6" x="336" y="74"/><rect width="6" height="6" x="312" y="80"/><rect width="6" height="6" x="336" y="80"/><rect width="18" height="6" x="318" y="86"/><rect width="12" height="6" x="360" y="50"/><rect width="6" height="6" x="354" y="56"/><rect width="6" height="6" x="348" y="62"/><rect width="24" height="6" x="348" y="68"/><rect width="6" height="6" x="348" y="74"/><rect width="6" height="6" x="372" y="74"/><rect width="6" height="6" x="348" y="80"/><rect width="6" height="6" x="372" y="80"/><rect width="18" height="6" x="354" y="86"/><rect width="12" height="6" x="384" y="50"/><rect width="6" height="6" x="408" y="50"/><rect width="12" height="6" x="384" y="56"/><rect width="6" height="6" x="402" y="56"/><rect width="6" height="6" x="396" y="62"/><rect width="6" height="6" x="396" y="68"/><rect width="6" height="6" x="390" y="74"/><rect width="6" height="6" x="384" y="80"/><rect width="12" height="6" x="402" y="80"/><rect width="12" height="6" x="402" y="86"/></g><g fill="#ffc247"><rect width="6" height="6" x="482" y="50"/><rect width="12" height="6" x="476" y="56"/><rect width="6" height="6" x="482" y="62"/><rect width="6" height="6" x="482" y="68"/><rect width="6" height="6" x="482" y="74"/><rect width="6" height="6" x="482" y="80"/><rect width="18" height="6" x="476" y="86"/><rect width="12" height="6" x="512" y="80"/><rect width="12" height="6" x="512" y="86"/><rect width="30" height="6" x="542" y="50"/><rect width="6" height="6" x="542" y="56"/><rect width="24" height="6" x="542" y="62"/><rect width="6" height="6" x="566" y="68"/><rect width="6" height="6" x="566" y="74"/><rect width="6" height="6" x="542" y="80"/><rect width="6" height="6" x="566" y="80"/><rect width="18" height="6" x="548" y="86"/><rect width="30" height="6" x="578" y="68"/><rect width="18" height="6" x="620" y="50"/><rect width="6" height="6" x="614" y="56"/><rect width="6" height="6" x="638" y="56"/><rect width="6" height="6" x="638" y="62"/><rect width="6" height="6" x="632" y="68"/><rect width="6" height="6" x="626" y="74"/><rect width="6" height="6" x="620" y="80"/><rect width="30" height="6" x="614" y="86"/><rect width="6" height="6" x="650" y="56"/><rect width="6" height="6" x="674" y="56"/><rect width="6" height="6" x="656" y="62"/><rect width="6" height="6" x="668" y="62"/><rect width="6" height="6" x="662" y="68"/><rect width="6" height="6" x="656" y="74"/><rect width="6" height="6" x="668" y="74"/><rect width="6" height="6" x="650" y="80"/><rect width="6" height="6" x="674" y="80"/></g><g fill="#ff5ba3"><rect width="6" height="6" x="748" y="56"/><rect width="6" height="6" x="748" y="62"/><rect width="30" height="6" x="736" y="68"/><rect width="6" height="6" x="748" y="74"/><rect width="6" height="6" x="748" y="80"/><rect width="30" height="6" x="772" y="50"/><rect width="6" height="6" x="790" y="56"/><rect width="6" height="6" x="784" y="62"/><rect width="6" height="6" x="790" y="68"/><rect width="6" height="6" x="796" y="74"/><rect width="6" height="6" x="772" y="80"/><rect width="6" height="6" x="796" y="80"/><rect width="18" height="6" x="778" y="86"/><rect width="18" height="6" x="808" y="62"/><rect width="6" height="6" x="808" y="68"/><rect width="6" height="6" x="826" y="68"/><rect width="18" height="6" x="808" y="74"/><rect width="6" height="6" x="808" y="80"/><rect width="6" height="6" x="808" y="86"/><rect width="18" height="6" x="844" y="62"/><rect width="6" height="6" x="844" y="68"/><rect width="6" height="6" x="862" y="68"/><rect width="18" height="6" x="844" y="74"/><rect width="6" height="6" x="844" y="80"/><rect width="6" height="6" x="844" y="86"/></g><g fill="#3fd08f" opacity=".9"><rect width="12" height="4" x="194" y="54"/><rect width="4" height="12" x="198" y="50"/><rect width="4" height="4" x="192" y="54"/><rect width="4" height="4" x="204" y="54"/><rect width="4" height="4" x="198" y="48"/><rect width="4" height="4" x="198" y="60"/></g><g fill="#a78bfa" opacity=".9"><rect width="12" height="4" x="424" y="54"/><rect width="4" height="12" x="428" y="50"/><rect width="4" height="4" x="422" y="54"/><rect width="4" height="4" x="434" y="54"/><rect width="4" height="4" x="428" y="48"/><rect width="4" height="4" x="428" y="60"/></g><g fill="#ffc247" opacity=".9"><rect width="12" height="4" x="690" y="54"/><rect width="4" height="12" x="694" y="50"/><rect width="4" height="4" x="688" y="54"/><rect width="4" height="4" x="700" y="54"/><rect width="4" height="4" x="694" y="48"/><rect width="4" height="4" x="694" y="60"/></g><g fill="#ff5ba3" opacity=".9"><rect width="12" height="4" x="884" y="54"/><rect width="4" height="12" x="888" y="50"/><rect width="4" height="4" x="882" y="54"/><rect width="4" height="4" x="894" y="54"/><rect width="4" height="4" x="888" y="48"/><rect width="4" height="4" x="888" y="60"/></g><text x="460" y="26" fill="#5f74a6" font-size="11" letter-spacing="1.5" text-anchor="middle">SWEET-SEARCH vs. NATIVE GREP-AND-READ · PAIRED · FDR-CONTROLLED · 11 CELLS</text><g fill="#8aa0c6" text-anchor="middle"><text x="115" y="116" font-size="12" letter-spacing=".5">LOWER COST · CODEX</text><text x="345" y="116" font-size="12" letter-spacing=".5">FEWER TOOL CALLS</text><text x="575" y="116" font-size="12" letter-spacing=".5">USEFUL CONTEXT / RESP</text><text x="805" y="116" font-size="12" letter-spacing=".5">ACCURACY · WEAK MODELS</text></g><rect width="260" height="150" fill="url(#candy)" opacity="0" style="mix-blend-mode:screen"><animate attributeName="opacity" begin="0s" dur="9s" keyTimes="0;0.05;0.45;0.5;1" repeatCount="indefinite" values="0;0.22;0.22;0;0"/><animate attributeName="x" begin="0s" dur="9s" keyTimes="0;0.5;1" repeatCount="indefinite" values="-260;920;920"/></rect></g></svg>