<svg xmlns="http://www.w3.org/2000/svg" fill="#1f2d6b" aria-label="Latency to reach sweet-HNSW quality as the index grows, log scales. sweet-HNSW: 78 µs, 207 µs, 320 µs at 6.9k, 20k, 157k vectors. Fastest rival: 89 µs (FAISS), 555 µs (USearch i8), 1.48 ms (USearch i8). FAISS needs 4.73 ms at 20k and tops out at MRR 81.99 against our 82.00. At 157k sweet-HNSW is 4.6 times faster than the fastest rival." font-family="-apple-system,BlinkMacSystemFont,Segoe UI,Helvetica,Arial,Apple Color Emoji,Segoe UI Emoji,sans-serif" font-weight="800" shape-rendering="crispEdges" text-anchor="middle" viewBox="0 0 920 372"><style>.h{fill:#65738d;font-size:10.5px;font-weight:700;letter-spacing:.65px}.d,.s{font-weight:600}.s{fill:#65738d;font-size:11px}.d{font-family:ui-monospace,SFMono-Regular,SF Mono,Menlo,Consolas,Liberation Mono,monospace}</style><path d="M6 0h908v6h6v360h-6v6H6v-6H0V6h6z"/><path fill="#f3f5fb" d="M12 6h896v6h6v348h-6v6H12v-6H6V12h6z"/><path fill="#ff5ba3" d="M161.333 6h149.3v6h-149.3z"/><path fill="#ffc247" d="M310.7 6H460v6H310.7z"/><path fill="#2cc4dd" d="M609.3 6h149.3v6H609.3z"/><g opacity=".85"><path fill="#db2777" d="M22 22h6v6h-6z"/><path fill="#d97706" d="M892 22h6v6h-6z"/><path fill="#7c3aed" d="M22 344h6v6h-6z"/><path fill="#0e9f6e" d="M892 344h6v6h-6z"/></g><text x="460" y="48" font-size="18">⚡ The bigger the index, the bigger our lead</text><path fill="#fff" d="M120 78h580v222H120z"/><path fill="#ccd5ea" d="M120 290h580v1H120zm0-32h580v1H120zm0-32h580v1H120zm0-42h580v1H120zm0-32h580v1H120zm0-32h580v1H120zm0-42h580v1H120zm0 0h1v222h-1zm197 0h1v222h-1zm383 0h1v222h-1z"/><text class="s" text-anchor="end"><tspan x="112" y="294">50 µs</tspan><tspan x="112" y="262">100 µs</tspan><tspan x="112" y="230">200 µs</tspan><tspan x="112" y="188">500 µs</tspan><tspan x="112" y="156">1 ms</tspan><tspan x="112" y="124">2 ms</tspan><tspan x="112" y="82">5 ms</tspan></text><text class="h"><tspan x="120" y="318">6,918 VECTORS</tspan><tspan x="317" y="318">20K VECTORS</tspan><tspan x="700" y="318">157K VECTORS</tspan></text><text x="112" y="68" class="h" text-anchor="end">TIME ↓</text><path fill="none" stroke="#b4bfd6" stroke-linejoin="round" stroke-width="3" d="m120 154.4 197.2-30.9L700 84.7" shape-rendering="geometricPrecision"/><path fill="#b4bfd6" stroke="#1f2d6b" stroke-width="1.5" d="M116 150.4h8v8h-8zm197.2-30.9h8v8h-8zM696 80.7h8v8h-8z"/><path fill="none" stroke="#ffc247" stroke-linejoin="round" stroke-width="3" d="m120 199.5 197.2-73 382.8-2.3" shape-rendering="geometricPrecision"/><path fill="#ffc247" stroke="#1f2d6b" stroke-width="1.5" d="M116 195.5h8v8h-8zm197.2-73h8v8h-8zm382.8-2.3h8v8h-8z"/><path fill="none" stroke="#2cc4dd" stroke-linejoin="round" stroke-width="3" d="M120 263.2 317.2 80.6 700 116.8" shape-rendering="geometricPrecision"/><text x="317.2" y="71.6" class="s" style="fill:#0891b2">4.73 ms*</text><path fill="#2cc4dd" stroke="#1f2d6b" stroke-width="1.5" d="M116 259.2h8v8h-8zM313.2 76.6h8v8h-8zM696 112.8h8v8h-8z"/><path fill="none" stroke="#a78bfa" stroke-linejoin="round" stroke-width="3" d="m120 261.2 197.2-82.1L700 134" shape-rendering="geometricPrecision"/><path fill="#a78bfa" stroke="#1f2d6b" stroke-width="1.5" d="M116 257.2h8v8h-8zm197.2-82.1h8v8h-8zM696 130h8v8h-8z"/><path fill="none" stroke="#ff5ba3" stroke-linejoin="round" stroke-width="5" d="m120 269.3 197.2-44.9 382.8-20" shape-rendering="geometricPrecision"/><path fill="#ff5ba3" stroke="#1f2d6b" stroke-width="1.5" d="M115 264.3h10v10h-10zm197.2-44.9h10v10h-10zm382.8-20h10v10h-10z"/><text x="718" y="89.7" fill="#65738d" font-size="13" text-anchor="start">hnswlib <tspan fill="#1f2d6b" class="d" font-size="12">4.32 ms</tspan></text><text x="718" y="121.8" fill="#0891b2" font-size="13" text-anchor="start">FAISS <tspan fill="#1f2d6b" class="d" font-size="12">2.15 ms</tspan></text><text x="718" y="138.8" fill="#d97706" font-size="13" text-anchor="start">USearch f16 <tspan fill="#1f2d6b" class="d" font-size="12">1.83 ms</tspan></text><text x="718" y="155.8" fill="#7c3aed" font-size="13" text-anchor="start">USearch i8 <tspan fill="#1f2d6b" class="d" font-size="12">1.48 ms</tspan></text><text x="718" y="209.4" fill="#db2777" font-size="15" text-anchor="start">sweet-HNSW <tspan fill="#1f2d6b" class="d" font-size="12">320 µs</tspan></text><path fill="#0e9f6e" d="M686 142h2v54.4h-2z"/><text x="678" y="173.2" fill="#0e9f6e" font-size="20" text-anchor="end">4.6× faster</text><text x="678" y="189.2" class="s" text-anchor="end">than the fastest rival at 157k</text><text x="460" y="348" class="s">p50 · 1 thread · Apple M3 Max · GCSN held-out (+ distractors) · lower is better · log scales · *FAISS tops out at 81.99 vs our 82.00</text></svg>