<svg xmlns="http://www.w3.org/2000/svg" aria-label="Three harness profiles comparing sweet-search with native grep-and-read on task-completion cost, solves and delegation" font-family="-apple-system,BlinkMacSystemFont,Segoe UI,Helvetica,Arial,Apple Color Emoji,Segoe UI Emoji,sans-serif" shape-rendering="crispEdges" viewBox="0 0 920 378"><g fill="#1f2d6b"><rect width="884" height="6" x="18"/><rect width="896" height="6" x="12" y="6"/><rect width="908" height="6" x="6" y="12"/><rect width="920" height="336" y="18"/><rect width="908" height="6" x="6" y="360"/><rect width="896" height="6" x="12" y="366"/><rect width="884" height="6" x="18" y="372"/></g><g fill="#3b4da0"><rect width="872" height="6" x="24" y="6"/><rect width="884" height="6" x="18" y="12"/><rect width="896" height="6" x="12" y="18"/><rect width="908" height="324" x="6" y="24"/><rect width="896" height="6" x="12" y="354"/><rect width="884" height="6" x="18" y="360"/><rect width="872" height="6" x="24" y="366"/></g><g fill="#f3f5fb"><rect width="860" height="6" x="30" y="12"/><rect width="872" height="6" x="24" y="18"/><rect width="884" height="6" x="18" y="24"/><rect width="896" height="312" x="12" y="30"/><rect width="884" height="6" x="18" y="348"/><rect width="872" height="6" x="24" y="354"/><rect width="860" height="6" x="30" y="360"/></g><rect width="6" height="6" x="22" y="22" fill="#db2777" opacity=".85"/><rect width="6" height="6" x="892" y="22" fill="#d97706" opacity=".85"/><rect width="6" height="6" x="22" y="340" fill="#7c3aed" opacity=".85"/><rect width="6" height="6" x="892" y="340" fill="#0e9f6e" opacity=".85"/><g fill="#1f2d6b" font-size="18" font-weight="800" text-anchor="middle"><text x="300" y="50">🍬 sweet-search</text><text x="462" y="50" fill="#7b88a3" font-size="14">vs.</text><text x="640" y="50">🐌 native grep-and-read</text></g><text x="460" y="70" fill="#7b88a3" font-size="10.5" letter-spacing="1.05" text-anchor="middle">FROZEN HELD-OUT · 200 SWE-REBENCH TASKS · 1 REP · 1,200 ROLLOUTS · GPT-5.6-LUNA</text><g fill="#65738d" font-size="10.5" font-weight="700" letter-spacing=".65"><text x="50" y="94">HARNESS</text><text x="360" y="94" text-anchor="middle">COST · SAME TASKS SOLVED</text><text x="540" y="94" text-anchor="middle">RESOLVE RATE</text><text x="700" y="94" text-anchor="middle">SUBAGENT CALLS</text><text x="835" y="94" text-anchor="middle">TOOL CALLS</text></g><g fill="#fff"><rect width="850" height="62" x="35" y="102"/><rect width="850" height="62" x="35" y="242"/></g><g fill="#e9edf7"><rect width="850" height="62" x="35" y="172"/></g><rect width="6" height="62" x="35" y="102" fill="#3fd08f"/><rect width="6" height="62" x="35" y="172" fill="#a78bfa"/><rect width="6" height="62" x="35" y="242" fill="#ffc247"/><g fill="#ccd5ea"><rect width="2" height="202" x="286" y="102"/><rect width="2" height="202" x="450" y="102"/><rect width="2" height="202" x="620" y="102"/><rect width="2" height="202" x="770" y="102"/></g><g fill="#1f2d6b"><text x="51" y="128" font-size="15.5" font-weight="800">CLAUDE CODE</text><text x="51" y="147" fill="#65738d" font-size="9.5" font-weight="600" letter-spacing=".4">REAL INVOICE · n=57 BOTH-SOLVED</text></g><text x="368" y="132" fill="#0e9f6e" font-size="24" font-weight="800" text-anchor="middle">−31.0%</text><text x="368" y="150" fill="#65738d" font-size="9.5" font-weight="600" text-anchor="middle">$1.61 / $2.34 inclusive</text><text x="535" y="132" fill="#db2777" font-size="19" font-weight="800" text-anchor="middle">66 / 69</text><text x="535" y="150" fill="#65738d" font-size="9.5" font-weight="600" text-anchor="middle">p=0.66 · tie</text><text x="695" y="132" fill="#7c3aed" font-size="19" font-weight="800" text-anchor="middle">150 / 1191</text><text x="695" y="150" fill="#65738d" font-size="9.5" font-weight="600" text-anchor="middle">−87% spend</text><text x="830" y="132" fill="#d97706" font-size="19" font-weight="800" text-anchor="middle">19.6 / 35.8</text><text x="830" y="150" fill="#65738d" font-size="9.5" font-weight="600" text-anchor="middle">sweet / native</text><g fill="#1f2d6b"><text x="51" y="198" font-size="15.5" font-weight="800">OPENCODE</text><text x="51" y="217" fill="#65738d" font-size="9.5" font-weight="600" letter-spacing=".4">LIST-PRICE LEDGER · n=61 BOTH-SOLVED</text></g><text x="368" y="202" fill="#0e9f6e" font-size="24" font-weight="800" text-anchor="middle">−7.7%</text><text x="368" y="220" fill="#65738d" font-size="9.5" font-weight="600" text-anchor="middle">$0.412 / $0.447 realised</text><text x="535" y="202" fill="#db2777" font-size="19" font-weight="800" text-anchor="middle">65 / 71</text><text x="535" y="220" fill="#65738d" font-size="9.5" font-weight="600" text-anchor="middle">p=0.18 · tie</text><text x="695" y="202" fill="#7c3aed" font-size="19" font-weight="800" text-anchor="middle">n/a</text><text x="695" y="220" fill="#65738d" font-size="9.5" font-weight="600" text-anchor="middle">not instrumented</text><text x="830" y="202" fill="#d97706" font-size="19" font-weight="800" text-anchor="middle">19.0 / 24.4</text><text x="830" y="220" fill="#65738d" font-size="9.5" font-weight="600" text-anchor="middle">sweet / native</text><g fill="#1f2d6b"><text x="51" y="268" font-size="15.5" font-weight="800">CODEX</text><text x="51" y="287" fill="#65738d" font-size="9.5" font-weight="600" letter-spacing=".4">NOTIONAL · n=68 BOTH-SOLVED</text></g><text x="368" y="272" fill="#0e9f6e" font-size="24" font-weight="800" text-anchor="middle">−2.1%</text><text x="368" y="290" fill="#65738d" font-size="9.5" font-weight="600" text-anchor="middle">$0.589 / $0.601 realised</text><text x="535" y="272" fill="#db2777" font-size="19" font-weight="800" text-anchor="middle">72 / 79</text><text x="535" y="290" fill="#65738d" font-size="9.5" font-weight="600" text-anchor="middle">p=0.12 · tie</text><text x="695" y="272" fill="#7c3aed" font-size="19" font-weight="800" text-anchor="middle">none</text><text x="695" y="290" fill="#65738d" font-size="9.5" font-weight="600" text-anchor="middle">no subagent tier</text><text x="830" y="272" fill="#d97706" font-size="19" font-weight="800" text-anchor="middle">10.6 / 8.8</text><text x="830" y="290" fill="#65738d" font-size="9.5" font-weight="600" text-anchor="middle">sweet / native</text><text x="460" y="330" fill="#7b88a3" font-size="9.5" font-weight="600" text-anchor="middle">SOLVE RATES ARE A TIE ON EVERY HARNESS · SWEET IS BEHIND BY 3–7 TASKS, NONE SIGNIFICANT · COST IS THE WIN</text></svg>